<mxfile host="app.diagrams.net" modified="2024-01-03T20:34:35.277Z" agent="Mozilla/5.0 (Windows NT 10.0; Win64; x64) AppleWebKit/537.36 (KHTML, like Gecko) Chrome/120.0.0.0 Safari/537.36" etag="O4VhfwfYhYv2nwVseTIc" version="22.1.16" type="device">
  <diagram id="C5RBs43oDa-KdzZeNtuy" name="Page-1">
    <mxGraphModel dx="1625" dy="1029" grid="0" gridSize="10" guides="1" tooltips="1" connect="1" arrows="1" fold="1" page="1" pageScale="1" pageWidth="827" pageHeight="1169" background="#000000" math="0" shadow="0">
      <root>
        <mxCell id="WIyWlLk6GJQsqaUBKTNV-0" />
        <mxCell id="WIyWlLk6GJQsqaUBKTNV-1" parent="WIyWlLk6GJQsqaUBKTNV-0" />
        <mxCell id="D4T2qlkIQEFNiHP2H97n-13" style="edgeStyle=orthogonalEdgeStyle;rounded=0;orthogonalLoop=1;jettySize=auto;html=1;exitX=0;exitY=0.5;exitDx=0;exitDy=0;entryX=1;entryY=0.5;entryDx=0;entryDy=0;strokeColor=#EEEEEE;fontColor=#FFFFFF;" edge="1" parent="WIyWlLk6GJQsqaUBKTNV-1" source="D4T2qlkIQEFNiHP2H97n-0" target="D4T2qlkIQEFNiHP2H97n-3">
          <mxGeometry relative="1" as="geometry" />
        </mxCell>
        <mxCell id="D4T2qlkIQEFNiHP2H97n-14" style="rounded=0;orthogonalLoop=1;jettySize=auto;html=1;exitX=1;exitY=0.5;exitDx=0;exitDy=0;entryX=0;entryY=0.5;entryDx=0;entryDy=0;strokeColor=#EEEEEE;fontColor=#FFFFFF;" edge="1" parent="WIyWlLk6GJQsqaUBKTNV-1" source="D4T2qlkIQEFNiHP2H97n-0" target="D4T2qlkIQEFNiHP2H97n-2">
          <mxGeometry relative="1" as="geometry" />
        </mxCell>
        <mxCell id="D4T2qlkIQEFNiHP2H97n-15" style="rounded=0;orthogonalLoop=1;jettySize=auto;html=1;exitX=0.5;exitY=0;exitDx=0;exitDy=0;entryX=0.5;entryY=1;entryDx=0;entryDy=0;strokeColor=#EEEEEE;fontColor=#FFFFFF;" edge="1" parent="WIyWlLk6GJQsqaUBKTNV-1" source="D4T2qlkIQEFNiHP2H97n-0" target="D4T2qlkIQEFNiHP2H97n-4">
          <mxGeometry relative="1" as="geometry" />
        </mxCell>
        <mxCell id="D4T2qlkIQEFNiHP2H97n-16" style="rounded=0;orthogonalLoop=1;jettySize=auto;html=1;exitX=1;exitY=0;exitDx=0;exitDy=0;strokeColor=#EEEEEE;fontColor=#FFFFFF;" edge="1" parent="WIyWlLk6GJQsqaUBKTNV-1" source="D4T2qlkIQEFNiHP2H97n-0" target="D4T2qlkIQEFNiHP2H97n-7">
          <mxGeometry relative="1" as="geometry" />
        </mxCell>
        <mxCell id="D4T2qlkIQEFNiHP2H97n-17" style="rounded=0;orthogonalLoop=1;jettySize=auto;html=1;exitX=0;exitY=0;exitDx=0;exitDy=0;strokeColor=#EEEEEE;fontColor=#FFFFFF;" edge="1" parent="WIyWlLk6GJQsqaUBKTNV-1" source="D4T2qlkIQEFNiHP2H97n-0" target="D4T2qlkIQEFNiHP2H97n-8">
          <mxGeometry relative="1" as="geometry" />
        </mxCell>
        <mxCell id="D4T2qlkIQEFNiHP2H97n-18" style="rounded=0;orthogonalLoop=1;jettySize=auto;html=1;exitX=0;exitY=1;exitDx=0;exitDy=0;strokeColor=#EEEEEE;fontColor=#FFFFFF;" edge="1" parent="WIyWlLk6GJQsqaUBKTNV-1" source="D4T2qlkIQEFNiHP2H97n-0" target="D4T2qlkIQEFNiHP2H97n-5">
          <mxGeometry relative="1" as="geometry" />
        </mxCell>
        <mxCell id="D4T2qlkIQEFNiHP2H97n-19" style="rounded=0;orthogonalLoop=1;jettySize=auto;html=1;exitX=1;exitY=1;exitDx=0;exitDy=0;strokeColor=#EEEEEE;fontColor=#FFFFFF;" edge="1" parent="WIyWlLk6GJQsqaUBKTNV-1" source="D4T2qlkIQEFNiHP2H97n-0" target="D4T2qlkIQEFNiHP2H97n-6">
          <mxGeometry relative="1" as="geometry" />
        </mxCell>
        <mxCell id="D4T2qlkIQEFNiHP2H97n-0" value="用戶" style="whiteSpace=wrap;html=1;labelBackgroundColor=none;fillColor=#B1DDF0;strokeColor=#BAC8D3;fontColor=#182E3E;" vertex="1" parent="WIyWlLk6GJQsqaUBKTNV-1">
          <mxGeometry x="338" y="437" width="120" height="60" as="geometry" />
        </mxCell>
        <mxCell id="D4T2qlkIQEFNiHP2H97n-2" value="密碼" style="ellipse;whiteSpace=wrap;html=1;strokeColor=#BAC8D3;fontColor=#182E3E;fillColor=#B1DDF0;" vertex="1" parent="WIyWlLk6GJQsqaUBKTNV-1">
          <mxGeometry x="527" y="437" width="80" height="60" as="geometry" />
        </mxCell>
        <mxCell id="D4T2qlkIQEFNiHP2H97n-3" value="帳號" style="ellipse;whiteSpace=wrap;html=1;strokeColor=#BAC8D3;fontColor=#182E3E;fillColor=#B1DDF0;" vertex="1" parent="WIyWlLk6GJQsqaUBKTNV-1">
          <mxGeometry x="199" y="437" width="80" height="60" as="geometry" />
        </mxCell>
        <mxCell id="D4T2qlkIQEFNiHP2H97n-4" value="姓名" style="ellipse;whiteSpace=wrap;html=1;strokeColor=#BAC8D3;fontColor=#182E3E;fillColor=#B1DDF0;" vertex="1" parent="WIyWlLk6GJQsqaUBKTNV-1">
          <mxGeometry x="357" y="332" width="80" height="60" as="geometry" />
        </mxCell>
        <mxCell id="D4T2qlkIQEFNiHP2H97n-21" style="rounded=0;orthogonalLoop=1;jettySize=auto;html=1;exitX=0.5;exitY=1;exitDx=0;exitDy=0;entryX=0.5;entryY=0;entryDx=0;entryDy=0;strokeColor=#EEEEEE;fontColor=#FFFFFF;" edge="1" parent="WIyWlLk6GJQsqaUBKTNV-1" source="D4T2qlkIQEFNiHP2H97n-5" target="D4T2qlkIQEFNiHP2H97n-11">
          <mxGeometry relative="1" as="geometry" />
        </mxCell>
        <mxCell id="D4T2qlkIQEFNiHP2H97n-5" value="寫日誌" style="rhombus;whiteSpace=wrap;html=1;strokeColor=#C73500;fillColor=#fa6800;fontColor=#000000;" vertex="1" parent="WIyWlLk6GJQsqaUBKTNV-1">
          <mxGeometry x="209" y="530" width="80" height="80" as="geometry" />
        </mxCell>
        <mxCell id="D4T2qlkIQEFNiHP2H97n-20" style="rounded=0;orthogonalLoop=1;jettySize=auto;html=1;exitX=0.5;exitY=1;exitDx=0;exitDy=0;entryX=0.5;entryY=0;entryDx=0;entryDy=0;strokeColor=#EEEEEE;fontColor=#FFFFFF;" edge="1" parent="WIyWlLk6GJQsqaUBKTNV-1" source="D4T2qlkIQEFNiHP2H97n-6" target="D4T2qlkIQEFNiHP2H97n-12">
          <mxGeometry relative="1" as="geometry" />
        </mxCell>
        <mxCell id="D4T2qlkIQEFNiHP2H97n-6" value="管理財務" style="rhombus;whiteSpace=wrap;html=1;strokeColor=#C73500;fillColor=#fa6800;fontColor=#000000;" vertex="1" parent="WIyWlLk6GJQsqaUBKTNV-1">
          <mxGeometry x="550" y="539" width="80" height="80" as="geometry" />
        </mxCell>
        <mxCell id="D4T2qlkIQEFNiHP2H97n-24" style="edgeStyle=orthogonalEdgeStyle;rounded=0;orthogonalLoop=1;jettySize=auto;html=1;exitX=0.5;exitY=0;exitDx=0;exitDy=0;entryX=0.5;entryY=1;entryDx=0;entryDy=0;strokeColor=#EEEEEE;fontColor=#FFFFFF;" edge="1" parent="WIyWlLk6GJQsqaUBKTNV-1" source="D4T2qlkIQEFNiHP2H97n-7" target="D4T2qlkIQEFNiHP2H97n-9">
          <mxGeometry relative="1" as="geometry" />
        </mxCell>
        <mxCell id="D4T2qlkIQEFNiHP2H97n-7" value="寫備忘錄" style="rhombus;whiteSpace=wrap;html=1;strokeColor=#C73500;fillColor=#fa6800;fontColor=#000000;" vertex="1" parent="WIyWlLk6GJQsqaUBKTNV-1">
          <mxGeometry x="582" y="280" width="80" height="80" as="geometry" />
        </mxCell>
        <mxCell id="D4T2qlkIQEFNiHP2H97n-23" style="edgeStyle=orthogonalEdgeStyle;rounded=0;orthogonalLoop=1;jettySize=auto;html=1;exitX=0.5;exitY=0;exitDx=0;exitDy=0;entryX=0.5;entryY=1;entryDx=0;entryDy=0;strokeColor=#EEEEEE;fontColor=#FFFFFF;" edge="1" parent="WIyWlLk6GJQsqaUBKTNV-1" source="D4T2qlkIQEFNiHP2H97n-8" target="D4T2qlkIQEFNiHP2H97n-10">
          <mxGeometry relative="1" as="geometry" />
        </mxCell>
        <mxCell id="D4T2qlkIQEFNiHP2H97n-8" value="管理" style="rhombus;whiteSpace=wrap;html=1;strokeColor=#C73500;fillColor=#fa6800;fontColor=#000000;" vertex="1" parent="WIyWlLk6GJQsqaUBKTNV-1">
          <mxGeometry x="179" y="267" width="80" height="80" as="geometry" />
        </mxCell>
        <mxCell id="D4T2qlkIQEFNiHP2H97n-57" style="edgeStyle=orthogonalEdgeStyle;rounded=0;orthogonalLoop=1;jettySize=auto;html=1;exitX=0;exitY=0.5;exitDx=0;exitDy=0;entryX=1;entryY=0.5;entryDx=0;entryDy=0;strokeColor=#EEEEEE;fontColor=#FFFFFF;" edge="1" parent="WIyWlLk6GJQsqaUBKTNV-1" source="D4T2qlkIQEFNiHP2H97n-9" target="D4T2qlkIQEFNiHP2H97n-55">
          <mxGeometry relative="1" as="geometry" />
        </mxCell>
        <mxCell id="D4T2qlkIQEFNiHP2H97n-58" style="edgeStyle=orthogonalEdgeStyle;rounded=0;orthogonalLoop=1;jettySize=auto;html=1;exitX=0.5;exitY=0;exitDx=0;exitDy=0;strokeColor=#EEEEEE;fontColor=#FFFFFF;" edge="1" parent="WIyWlLk6GJQsqaUBKTNV-1" source="D4T2qlkIQEFNiHP2H97n-9" target="D4T2qlkIQEFNiHP2H97n-54">
          <mxGeometry relative="1" as="geometry" />
        </mxCell>
        <mxCell id="D4T2qlkIQEFNiHP2H97n-59" style="rounded=0;orthogonalLoop=1;jettySize=auto;html=1;exitX=1;exitY=0.5;exitDx=0;exitDy=0;strokeColor=#EEEEEE;fontColor=#FFFFFF;" edge="1" parent="WIyWlLk6GJQsqaUBKTNV-1" source="D4T2qlkIQEFNiHP2H97n-9" target="D4T2qlkIQEFNiHP2H97n-56">
          <mxGeometry relative="1" as="geometry" />
        </mxCell>
        <mxCell id="D4T2qlkIQEFNiHP2H97n-9" value="備忘錄" style="whiteSpace=wrap;html=1;labelBackgroundColor=none;fillColor=#B1DDF0;strokeColor=#BAC8D3;fontColor=#182E3E;" vertex="1" parent="WIyWlLk6GJQsqaUBKTNV-1">
          <mxGeometry x="556" y="180" width="120" height="60" as="geometry" />
        </mxCell>
        <mxCell id="D4T2qlkIQEFNiHP2H97n-48" style="rounded=0;orthogonalLoop=1;jettySize=auto;html=1;exitX=0.75;exitY=0;exitDx=0;exitDy=0;entryX=0;entryY=1;entryDx=0;entryDy=0;strokeColor=#EEEEEE;fontColor=#FFFFFF;" edge="1" parent="WIyWlLk6GJQsqaUBKTNV-1" source="D4T2qlkIQEFNiHP2H97n-10" target="D4T2qlkIQEFNiHP2H97n-26">
          <mxGeometry relative="1" as="geometry" />
        </mxCell>
        <mxCell id="D4T2qlkIQEFNiHP2H97n-49" style="rounded=0;orthogonalLoop=1;jettySize=auto;html=1;exitX=0.25;exitY=0;exitDx=0;exitDy=0;strokeColor=#EEEEEE;fontColor=#FFFFFF;" edge="1" parent="WIyWlLk6GJQsqaUBKTNV-1" source="D4T2qlkIQEFNiHP2H97n-10" target="D4T2qlkIQEFNiHP2H97n-30">
          <mxGeometry relative="1" as="geometry" />
        </mxCell>
        <mxCell id="D4T2qlkIQEFNiHP2H97n-51" style="rounded=0;orthogonalLoop=1;jettySize=auto;html=1;exitX=1;exitY=1;exitDx=0;exitDy=0;strokeColor=#EEEEEE;fontColor=#FFFFFF;" edge="1" parent="WIyWlLk6GJQsqaUBKTNV-1" source="D4T2qlkIQEFNiHP2H97n-10" target="D4T2qlkIQEFNiHP2H97n-25">
          <mxGeometry relative="1" as="geometry" />
        </mxCell>
        <mxCell id="D4T2qlkIQEFNiHP2H97n-52" style="rounded=0;orthogonalLoop=1;jettySize=auto;html=1;exitX=0;exitY=1;exitDx=0;exitDy=0;entryX=0.5;entryY=0;entryDx=0;entryDy=0;strokeColor=#EEEEEE;fontColor=#FFFFFF;" edge="1" parent="WIyWlLk6GJQsqaUBKTNV-1" source="D4T2qlkIQEFNiHP2H97n-10" target="D4T2qlkIQEFNiHP2H97n-29">
          <mxGeometry relative="1" as="geometry" />
        </mxCell>
        <mxCell id="D4T2qlkIQEFNiHP2H97n-53" style="rounded=0;orthogonalLoop=1;jettySize=auto;html=1;exitX=0;exitY=0.5;exitDx=0;exitDy=0;entryX=1;entryY=0.5;entryDx=0;entryDy=0;strokeColor=#EEEEEE;fontColor=#FFFFFF;" edge="1" parent="WIyWlLk6GJQsqaUBKTNV-1" source="D4T2qlkIQEFNiHP2H97n-10" target="D4T2qlkIQEFNiHP2H97n-27">
          <mxGeometry relative="1" as="geometry" />
        </mxCell>
        <mxCell id="D4T2qlkIQEFNiHP2H97n-10" value="通訊錄" style="whiteSpace=wrap;html=1;labelBackgroundColor=none;fillColor=#B1DDF0;strokeColor=#BAC8D3;fontColor=#182E3E;" vertex="1" parent="WIyWlLk6GJQsqaUBKTNV-1">
          <mxGeometry x="159" y="152" width="120" height="60" as="geometry" />
        </mxCell>
        <mxCell id="D4T2qlkIQEFNiHP2H97n-65" style="rounded=0;orthogonalLoop=1;jettySize=auto;html=1;exitX=1;exitY=1;exitDx=0;exitDy=0;entryX=0;entryY=0;entryDx=0;entryDy=0;strokeColor=#EEEEEE;fontColor=#FFFFFF;" edge="1" parent="WIyWlLk6GJQsqaUBKTNV-1" source="D4T2qlkIQEFNiHP2H97n-11" target="D4T2qlkIQEFNiHP2H97n-63">
          <mxGeometry relative="1" as="geometry" />
        </mxCell>
        <mxCell id="D4T2qlkIQEFNiHP2H97n-66" style="rounded=0;orthogonalLoop=1;jettySize=auto;html=1;exitX=0;exitY=1;exitDx=0;exitDy=0;strokeColor=#EEEEEE;fontColor=#FFFFFF;" edge="1" parent="WIyWlLk6GJQsqaUBKTNV-1" source="D4T2qlkIQEFNiHP2H97n-11" target="D4T2qlkIQEFNiHP2H97n-61">
          <mxGeometry relative="1" as="geometry" />
        </mxCell>
        <mxCell id="D4T2qlkIQEFNiHP2H97n-67" style="rounded=0;orthogonalLoop=1;jettySize=auto;html=1;exitX=0;exitY=0;exitDx=0;exitDy=0;strokeColor=#EEEEEE;fontColor=#FFFFFF;" edge="1" parent="WIyWlLk6GJQsqaUBKTNV-1" source="D4T2qlkIQEFNiHP2H97n-11" target="D4T2qlkIQEFNiHP2H97n-62">
          <mxGeometry relative="1" as="geometry" />
        </mxCell>
        <mxCell id="D4T2qlkIQEFNiHP2H97n-11" value="日記" style="whiteSpace=wrap;html=1;labelBackgroundColor=none;fillColor=#B1DDF0;strokeColor=#BAC8D3;fontColor=#182E3E;" vertex="1" parent="WIyWlLk6GJQsqaUBKTNV-1">
          <mxGeometry x="169" y="670" width="120" height="60" as="geometry" />
        </mxCell>
        <mxCell id="D4T2qlkIQEFNiHP2H97n-73" style="rounded=0;orthogonalLoop=1;jettySize=auto;html=1;exitX=1;exitY=0.25;exitDx=0;exitDy=0;strokeColor=#EEEEEE;fontColor=#FFFFFF;" edge="1" parent="WIyWlLk6GJQsqaUBKTNV-1" source="D4T2qlkIQEFNiHP2H97n-12" target="D4T2qlkIQEFNiHP2H97n-70">
          <mxGeometry relative="1" as="geometry" />
        </mxCell>
        <mxCell id="D4T2qlkIQEFNiHP2H97n-74" style="rounded=0;orthogonalLoop=1;jettySize=auto;html=1;exitX=1;exitY=1;exitDx=0;exitDy=0;strokeColor=#EEEEEE;fontColor=#FFFFFF;" edge="1" parent="WIyWlLk6GJQsqaUBKTNV-1" source="D4T2qlkIQEFNiHP2H97n-12" target="D4T2qlkIQEFNiHP2H97n-71">
          <mxGeometry relative="1" as="geometry" />
        </mxCell>
        <mxCell id="D4T2qlkIQEFNiHP2H97n-75" style="rounded=0;orthogonalLoop=1;jettySize=auto;html=1;exitX=0;exitY=1;exitDx=0;exitDy=0;strokeColor=#EEEEEE;fontColor=#FFFFFF;" edge="1" parent="WIyWlLk6GJQsqaUBKTNV-1" source="D4T2qlkIQEFNiHP2H97n-12" target="D4T2qlkIQEFNiHP2H97n-68">
          <mxGeometry relative="1" as="geometry" />
        </mxCell>
        <mxCell id="D4T2qlkIQEFNiHP2H97n-12" value="個人財務" style="whiteSpace=wrap;html=1;labelBackgroundColor=none;fillColor=#B1DDF0;strokeColor=#BAC8D3;fontColor=#182E3E;" vertex="1" parent="WIyWlLk6GJQsqaUBKTNV-1">
          <mxGeometry x="530" y="673" width="120" height="60" as="geometry" />
        </mxCell>
        <mxCell id="D4T2qlkIQEFNiHP2H97n-25" value="備註" style="ellipse;whiteSpace=wrap;html=1;strokeColor=#BAC8D3;fontColor=#182E3E;fillColor=#B1DDF0;" vertex="1" parent="WIyWlLk6GJQsqaUBKTNV-1">
          <mxGeometry x="295" y="241" width="80" height="60" as="geometry" />
        </mxCell>
        <mxCell id="D4T2qlkIQEFNiHP2H97n-26" value="電話" style="ellipse;whiteSpace=wrap;html=1;strokeColor=#BAC8D3;fontColor=#182E3E;fillColor=#B1DDF0;" vertex="1" parent="WIyWlLk6GJQsqaUBKTNV-1">
          <mxGeometry x="291" y="67" width="80" height="60" as="geometry" />
        </mxCell>
        <mxCell id="D4T2qlkIQEFNiHP2H97n-27" value="姓名" style="ellipse;whiteSpace=wrap;html=1;strokeColor=#BAC8D3;fontColor=#182E3E;fillColor=#B1DDF0;" vertex="1" parent="WIyWlLk6GJQsqaUBKTNV-1">
          <mxGeometry x="21" y="155" width="80" height="60" as="geometry" />
        </mxCell>
        <mxCell id="D4T2qlkIQEFNiHP2H97n-28" value="工作地點" style="ellipse;whiteSpace=wrap;html=1;strokeColor=#BAC8D3;fontColor=#182E3E;fillColor=#B1DDF0;" vertex="1" parent="WIyWlLk6GJQsqaUBKTNV-1">
          <mxGeometry x="334" y="162" width="80" height="60" as="geometry" />
        </mxCell>
        <mxCell id="D4T2qlkIQEFNiHP2H97n-29" value="城市" style="ellipse;whiteSpace=wrap;html=1;strokeColor=#BAC8D3;fontColor=#182E3E;fillColor=#B1DDF0;" vertex="1" parent="WIyWlLk6GJQsqaUBKTNV-1">
          <mxGeometry x="71" y="248" width="80" height="60" as="geometry" />
        </mxCell>
        <mxCell id="D4T2qlkIQEFNiHP2H97n-30" value="性別" style="ellipse;whiteSpace=wrap;html=1;strokeColor=#BAC8D3;fontColor=#182E3E;fillColor=#B1DDF0;" vertex="1" parent="WIyWlLk6GJQsqaUBKTNV-1">
          <mxGeometry x="74" y="67" width="80" height="60" as="geometry" />
        </mxCell>
        <mxCell id="D4T2qlkIQEFNiHP2H97n-50" style="rounded=0;orthogonalLoop=1;jettySize=auto;html=1;exitX=1;exitY=0.5;exitDx=0;exitDy=0;entryX=0;entryY=0.367;entryDx=0;entryDy=0;entryPerimeter=0;strokeColor=#EEEEEE;fontColor=#FFFFFF;" edge="1" parent="WIyWlLk6GJQsqaUBKTNV-1" source="D4T2qlkIQEFNiHP2H97n-10" target="D4T2qlkIQEFNiHP2H97n-28">
          <mxGeometry relative="1" as="geometry" />
        </mxCell>
        <mxCell id="D4T2qlkIQEFNiHP2H97n-54" value="事件" style="ellipse;whiteSpace=wrap;html=1;strokeColor=#BAC8D3;fontColor=#182E3E;fillColor=#B1DDF0;" vertex="1" parent="WIyWlLk6GJQsqaUBKTNV-1">
          <mxGeometry x="576" y="67" width="80" height="60" as="geometry" />
        </mxCell>
        <mxCell id="D4T2qlkIQEFNiHP2H97n-55" value="地點" style="ellipse;whiteSpace=wrap;html=1;strokeColor=#BAC8D3;fontColor=#182E3E;fillColor=#B1DDF0;" vertex="1" parent="WIyWlLk6GJQsqaUBKTNV-1">
          <mxGeometry x="437" y="177" width="80" height="60" as="geometry" />
        </mxCell>
        <mxCell id="D4T2qlkIQEFNiHP2H97n-56" value="時間" style="ellipse;whiteSpace=wrap;html=1;strokeColor=#BAC8D3;fontColor=#182E3E;fillColor=#B1DDF0;" vertex="1" parent="WIyWlLk6GJQsqaUBKTNV-1">
          <mxGeometry x="727" y="177" width="80" height="60" as="geometry" />
        </mxCell>
        <mxCell id="D4T2qlkIQEFNiHP2H97n-60" value="地點" style="ellipse;whiteSpace=wrap;html=1;strokeColor=#BAC8D3;fontColor=#182E3E;fillColor=#B1DDF0;" vertex="1" parent="WIyWlLk6GJQsqaUBKTNV-1">
          <mxGeometry x="317" y="624" width="80" height="60" as="geometry" />
        </mxCell>
        <mxCell id="D4T2qlkIQEFNiHP2H97n-61" value="人物" style="ellipse;whiteSpace=wrap;html=1;strokeColor=#BAC8D3;fontColor=#182E3E;fillColor=#B1DDF0;" vertex="1" parent="WIyWlLk6GJQsqaUBKTNV-1">
          <mxGeometry x="68" y="750" width="80" height="60" as="geometry" />
        </mxCell>
        <mxCell id="D4T2qlkIQEFNiHP2H97n-62" value="時間" style="ellipse;whiteSpace=wrap;html=1;strokeColor=#BAC8D3;fontColor=#182E3E;fillColor=#B1DDF0;" vertex="1" parent="WIyWlLk6GJQsqaUBKTNV-1">
          <mxGeometry x="68" y="626" width="80" height="60" as="geometry" />
        </mxCell>
        <mxCell id="D4T2qlkIQEFNiHP2H97n-63" value="事件" style="ellipse;whiteSpace=wrap;html=1;strokeColor=#BAC8D3;fontColor=#182E3E;fillColor=#B1DDF0;" vertex="1" parent="WIyWlLk6GJQsqaUBKTNV-1">
          <mxGeometry x="302" y="745" width="80" height="60" as="geometry" />
        </mxCell>
        <mxCell id="D4T2qlkIQEFNiHP2H97n-64" style="rounded=0;orthogonalLoop=1;jettySize=auto;html=1;exitX=1;exitY=0;exitDx=0;exitDy=0;entryX=0.025;entryY=0.733;entryDx=0;entryDy=0;entryPerimeter=0;strokeColor=#EEEEEE;fontColor=#FFFFFF;" edge="1" parent="WIyWlLk6GJQsqaUBKTNV-1" source="D4T2qlkIQEFNiHP2H97n-11" target="D4T2qlkIQEFNiHP2H97n-60">
          <mxGeometry relative="1" as="geometry" />
        </mxCell>
        <mxCell id="D4T2qlkIQEFNiHP2H97n-68" value="消費金額" style="ellipse;whiteSpace=wrap;html=1;strokeColor=#BAC8D3;fontColor=#182E3E;fillColor=#B1DDF0;" vertex="1" parent="WIyWlLk6GJQsqaUBKTNV-1">
          <mxGeometry x="443" y="756" width="80" height="60" as="geometry" />
        </mxCell>
        <mxCell id="D4T2qlkIQEFNiHP2H97n-69" value="消費時間" style="ellipse;whiteSpace=wrap;html=1;strokeColor=#BAC8D3;fontColor=#182E3E;fillColor=#B1DDF0;" vertex="1" parent="WIyWlLk6GJQsqaUBKTNV-1">
          <mxGeometry x="437" y="615" width="80" height="60" as="geometry" />
        </mxCell>
        <mxCell id="D4T2qlkIQEFNiHP2H97n-70" value="收入" style="ellipse;whiteSpace=wrap;html=1;strokeColor=#BAC8D3;fontColor=#182E3E;fillColor=#B1DDF0;" vertex="1" parent="WIyWlLk6GJQsqaUBKTNV-1">
          <mxGeometry x="689" y="636" width="80" height="60" as="geometry" />
        </mxCell>
        <mxCell id="D4T2qlkIQEFNiHP2H97n-71" value="消費地點" style="ellipse;whiteSpace=wrap;html=1;strokeColor=#BAC8D3;fontColor=#182E3E;fillColor=#B1DDF0;" vertex="1" parent="WIyWlLk6GJQsqaUBKTNV-1">
          <mxGeometry x="676" y="750" width="80" height="60" as="geometry" />
        </mxCell>
        <mxCell id="D4T2qlkIQEFNiHP2H97n-72" style="rounded=0;orthogonalLoop=1;jettySize=auto;html=1;exitX=0;exitY=0;exitDx=0;exitDy=0;entryX=0.923;entryY=0.731;entryDx=0;entryDy=0;entryPerimeter=0;strokeColor=#EEEEEE;fontColor=#FFFFFF;" edge="1" parent="WIyWlLk6GJQsqaUBKTNV-1" source="D4T2qlkIQEFNiHP2H97n-12" target="D4T2qlkIQEFNiHP2H97n-69">
          <mxGeometry relative="1" as="geometry" />
        </mxCell>
      </root>
    </mxGraphModel>
  </diagram>
</mxfile>
